<?xml version="1.0" encoding="UTF-8" standalone="no"?>
<!-- Created with Inkscape (http://www.inkscape.org/) -->

<svg
   width="998.28082mm"
   height="103.28189mm"
   viewBox="0 0 998.28082 103.28189"
   version="1.1"
   id="svg5"
   xmlns="http://www.w3.org/2000/svg"
   xmlns:svg="http://www.w3.org/2000/svg">
  <defs
     id="defs2" />
  <g
     id="layer1"
     transform="translate(-37.817941,213.52914)">
    <g
       id="g1378">
      <g
         id="g354">
        <path
           id="path1234"
           style="fill:none;stroke:#000000;stroke-width:22;stroke-linecap:butt;stroke-linejoin:round;stroke-dasharray:none"
           d="m 45.181689,-122.09842 c 51.904028,6.97514 99.635001,-29.44686 106.610151,-81.35086" />
        <circle
           style="fill:#000000;stroke:none;stroke-width:15.0479;stroke-linecap:round;stroke-linejoin:round;stroke-dasharray:none"
           id="circle1236"
           cx="55.31794"
           cy="-192.45898"
           r="17.5" />
        <circle
           style="fill:#000000;stroke:none;stroke-width:15.0479;stroke-linecap:round;stroke-linejoin:round;stroke-dasharray:none"
           id="circle1238"
           cx="101.23106"
           cy="-192.45898"
           r="17.5" />
        <path
           d="m 239.85933,-170.01504 c 0,-23.06938 -18.6489,-42.27084 -41.85642,-42.68526 h -23.34566 v 101.39476 h 23.34566 v -16.16238 c 23.20752,-0.41442 41.85642,-19.3396 41.85642,-42.54712 z m -41.85642,-19.20146 c 10.3605,0.41442 18.51076,8.84096 18.51076,19.20146 0,10.3605 -8.15026,18.78704 -18.51076,19.20146 z"
           style="font-size:138.14px;line-height:1.25;font-family:'The Bold Font';-inkscape-font-specification:'The Bold Font';text-align:center;letter-spacing:0px;text-anchor:middle;stroke-width:2.0721"
           id="path310" />
        <path
           d="m 314.04058,-134.6512 h -37.02152 v -78.18724 H 253.6734 v 101.5329 h 60.36718 z"
           style="font-size:138.14px;line-height:1.25;font-family:'The Bold Font';-inkscape-font-specification:'The Bold Font';text-align:center;letter-spacing:0px;text-anchor:middle;stroke-width:2.0721"
           id="path312" />
        <path
           d="M 410.46239,-111.30554 377.72321,-212.7003 h -22.1024 l -34.535,101.39476 h 24.72706 l 4.1442,-12.29446 h 31.91034 l 4.00606,12.29446 z m -44.06666,-60.22904 8.01212,24.58892 h -16.43866 z"
           style="font-size:138.14px;line-height:1.25;font-family:'The Bold Font';-inkscape-font-specification:'The Bold Font';text-align:center;letter-spacing:0px;text-anchor:middle;stroke-width:2.0721"
           id="path314" />
        <path
           d="m 442.511,-111.30554 41.58014,-102.2236 h -25.27962 l -17.82006,44.06666 -20.85914,-44.06666 h -25.83218 l 34.67314,73.49048 -11.7419,28.73312 z"
           style="font-size:138.14px;line-height:1.25;font-family:'The Bold Font';-inkscape-font-specification:'The Bold Font';text-align:center;letter-spacing:0px;text-anchor:middle;stroke-width:2.0721"
           id="path316" />
        <path
           d="m 536.58434,-168.08108 v 23.34566 h 20.30658 v 5.11118 c -10.63678,7.73584 -25.97032,6.63072 -35.50198,-2.90094 -10.77492,-10.77492 -10.77492,-28.18056 0,-38.95548 10.63678,-10.63678 28.3187,-10.63678 38.95548,0 l 16.5768,-16.5768 c -19.89216,-19.89216 -52.21692,-19.89216 -72.10908,0 -19.75402,19.75402 -19.61588,52.35506 0,71.97094 9.94608,9.94608 22.93124,14.91912 36.05454,14.91912 5.38746,0 10.91306,-0.82884 16.02424,-2.62466 v 2.48652 h 23.4838 v -56.77554 z"
           style="font-size:138.14px;line-height:1.25;font-family:'The Bold Font';-inkscape-font-specification:'The Bold Font';text-align:center;letter-spacing:0px;text-anchor:middle;stroke-width:2.0721"
           id="path318" />
        <path
           d="m 638.39353,-111.30554 h 27.48986 l -22.37868,-36.19268 c 8.2884,-6.76886 13.1233,-16.30052 13.1233,-27.21358 0,-20.44472 -18.6489,-37.2978 -41.85642,-37.71222 h -23.34566 v 101.11848 h 23.34566 v -25.5559 c 2.62466,-0.13814 4.97304,-0.27628 7.32142,-0.6907 z m -23.62194,-77.63468 c 10.08422,0.41442 18.51076,6.63072 18.51076,14.22842 0,7.73584 -8.42654,13.95214 -18.51076,14.36656 z"
           style="font-size:138.14px;line-height:1.25;font-family:'The Bold Font';-inkscape-font-specification:'The Bold Font';text-align:center;letter-spacing:0px;text-anchor:middle;stroke-width:2.0721"
           id="path320" />
        <path
           d="m 719.89624,-212.83844 c -28.04242,0 -50.69738,22.65496 -50.69738,50.69738 0,28.04242 22.65496,50.69738 50.69738,50.69738 28.04242,0 50.83552,-22.65496 50.83552,-50.69738 0,-28.04242 -22.7931,-50.69738 -50.83552,-50.69738 z m 0,78.0491 c -15.05726,0 -27.35172,-12.29446 -27.35172,-27.35172 0,-15.05726 12.29446,-27.35172 27.35172,-27.35172 15.05726,0 27.35172,12.29446 27.35172,27.35172 0,15.05726 -12.29446,27.35172 -27.35172,27.35172 z"
           style="font-size:138.14px;line-height:1.25;font-family:'The Bold Font';-inkscape-font-specification:'The Bold Font';text-align:center;letter-spacing:0px;text-anchor:middle;stroke-width:2.0721"
           id="path322" />
        <path
           d="m 816.5943,-111.30554 c 20.99728,-0.41442 38.40292,-17.68192 37.9885,-38.81734 v -62.71556 h -23.34566 v 62.8537 c 0,8.2884 -6.49258,15.33354 -14.91912,15.33354 -4.1442,0 -7.73584,-1.3814 -10.77492,-4.28234 -3.03908,-3.03908 -4.55862,-6.63072 -4.55862,-10.63678 v -63.26812 h -23.34566 v 63.40626 c 0.13814,10.49864 4.28234,19.89216 11.60376,27.21358 7.18328,7.04514 16.5768,10.91306 26.9373,10.91306 z"
           style="font-size:138.14px;line-height:1.25;font-family:'The Bold Font';-inkscape-font-specification:'The Bold Font';text-align:center;letter-spacing:0px;text-anchor:middle;stroke-width:2.0721"
           id="path324" />
        <path
           d="m 926.96828,-153.43824 -33.01546,-58.98578 h -25.41776 v 101.11848 h 23.34566 v -59.12392 l 33.1536,59.12392 h 25.27962 V -212.7003 h -23.34566 z"
           style="font-size:138.14px;line-height:1.25;font-family:'The Bold Font';-inkscape-font-specification:'The Bold Font';text-align:center;letter-spacing:0px;text-anchor:middle;stroke-width:2.0721"
           id="path326" />
        <path
           d="m 987.47355,-213.25286 h -23.34566 v 101.94732 h 23.34566 c 27.48985,-1.51954 48.62525,-23.06938 48.62525,-50.28296 0,-27.48986 -21.5498,-50.00668 -48.62525,-51.52622 z m 0,23.4838 c 14.22845,1.51954 25.27965,13.67586 25.27965,28.18056 0,14.09028 -10.9131,25.27962 -25.27965,26.79916 z"
           style="font-size:138.14px;line-height:1.25;font-family:'The Bold Font';-inkscape-font-specification:'The Bold Font';text-align:center;letter-spacing:0px;text-anchor:middle;stroke-width:2.0721"
           id="path328" />
      </g>
      <g
         id="g1401"
         transform="translate(209.50466,-13.157298)">
        <path
           id="path1392"
           style="fill:none;stroke:#000000;stroke-width:22;stroke-linecap:butt;stroke-linejoin:round;stroke-dasharray:none"
           d="m 46.97646,35.482383 c 51.904028,6.97514 99.635,-29.44686 106.61015,-81.35086" />
        <circle
           style="fill:#000000;stroke:none;stroke-width:15.0479;stroke-linecap:round;stroke-linejoin:round;stroke-dasharray:none"
           id="circle1394"
           cx="57.112709"
           cy="-34.878181"
           r="17.5" />
        <circle
           style="fill:#000000;stroke:none;stroke-width:15.0479;stroke-linecap:round;stroke-linejoin:round;stroke-dasharray:none"
           id="circle1396"
           cx="103.02583"
           cy="-34.878181"
           r="17.5" />
      </g>
    </g>
  </g>
</svg>
